<svg xmlns="http://www.w3.org/2000/svg" viewBox="0 0 128 136">
  <defs><linearGradient id="f" x1="0" y1="1" x2="1" y2="0">
    <stop offset="0" stop-color="#A9EC1E"/><stop offset=".55" stop-color="#FFFFFF"/><stop offset="1" stop-color="#8F6BFF"/>
  </linearGradient></defs>
  <path d="M67 46C63 24 76 6 106 0c3 24-11 42-39 46Z" fill="#A9EC1E"/>
  <path d="M64 46C56 29 40 24 28 29 9 37 2 58 4 80c2 23 14 45 30 53 9 5 16-2 30-2s21 7 30 2c16-8 28-30 30-53 2-22-5-43-24-51-12-5-28 0-36 17Z" fill="#0B0B0D"/>
  <path d="M40 118V52h20l14 40 14-40h20v66H90V80l-11 24h-10L58 80v38Z" fill="url(#f)"/>
</svg>
