<svg xmlns="http://www.w3.org/2000/svg" viewBox="0 0 300 560" width="300" height="560">
  <rect x="0" y="0" width="300" height="560" fill="#f0eeec"/>

  <!-- height line (point 4) -->
  <line x1="34" y1="18" x2="34" y2="542" stroke="#e8791f" stroke-width="2.5"/>
  <line x1="24" y1="18" x2="44" y2="18" stroke="#e8791f" stroke-width="2.5" stroke-dasharray="4 4"/>
  <line x1="24" y1="542" x2="44" y2="542" stroke="#e8791f" stroke-width="2.5"/>

  <!-- silhouette -->
  <g fill="#c9beb2">
    <circle cx="150" cy="58" r="30"/>
    <path d="M124 46 Q150 20 176 46 Q178 34 166 30 Q150 22 134 30 Q122 34 124 46Z" fill="#3a332c"/>
    <path d="M136 84 L164 84 L168 110 L132 110 Z"/>
    <path d="M96 116 Q150 96 204 116 L216 216 Q150 240 84 216 Z"/>
    <path d="M96 116 L64 146 L54 250 L72 254 L90 168 Z"/>
    <path d="M204 116 L236 146 L246 250 L228 254 L210 168 Z"/>
    <path d="M114 232 L144 232 L148 424 L126 424 L118 306 Z"/>
    <path d="M186 232 L156 232 L152 424 L174 424 L182 306 Z"/>
    <ellipse cx="128" cy="436" rx="15" ry="7"/>
    <ellipse cx="172" cy="436" rx="15" ry="7"/>
  </g>

  <!-- arm/sleeve length line (point 1) -->
  <path d="M96 118 Q66 148 60 192 Q54 232 66 252" fill="none" stroke="#e8791f" stroke-width="4" stroke-linecap="round"/>

  <!-- waist loop (point 2) -->
  <ellipse cx="150" cy="208" rx="58" ry="14" fill="none" stroke="#e8791f" stroke-width="4"/>

  <!-- hips loop (point 3) -->
  <ellipse cx="150" cy="232" rx="62" ry="15" fill="none" stroke="#e8791f" stroke-width="4"/>

  <!-- numbered badges -->
  <g font-family="Helvetica, Arial, sans-serif" font-weight="700" font-size="19" fill="#fff" text-anchor="middle">
    <circle cx="34" cy="196" r="17" fill="#1a1715"/>
    <text x="34" y="203">1</text>

    <circle cx="226" cy="208" r="17" fill="#1a1715"/>
    <text x="226" y="215">2</text>

    <circle cx="244" cy="240" r="17" fill="#1a1715"/>
    <text x="244" y="247">3</text>

    <circle cx="34" cy="340" r="17" fill="#1a1715"/>
    <text x="34" y="347">4</text>
  </g>
</svg>
